1 F#6
1 F#6
1 F#6
1 F#6
1 C3
1 C3
1 C3
1 C3
1 F#6
1 C3
1 F#6
1 F#6
1 E6
1 F#6
1 C3
1 C3
1 F#6
1 F#6
1 F#6
1 F#6
1 C3
1 C3
1 C3
1 C3
1 F#6
1 C3
1 F#6
1 F#6
1 E6
1 F#6
1 C3
1 C3
1 F#6
1 F#6
1 F#6
1 F#6
1 C3
1 C3
1 A6
1 A6
1 A6
1 A6
1 F#6
1 F#6
1 C3
1 C3
1 E6
1 E6
1 E6
1 E6
1 D6
1 D6
1 C3
1 C3
1 B5
1 C3
1 B5
1 B5
1 C#6
1 C#6
1 D6
1 D6
1 B5
1 B5
1 F#6
1 F#6
1 F#6
1 F#6
1 C3
1 C3
1 C3
1 C3
1 F#6
1 C3
1 F#6
1 F#6
1 E6
1 F#6
1 C3
1 C3
1 F#6
1 F#6
1 F#6
1 F#6
1 C3
1 C3
1 C3
1 C3
1 F#6
1 C3
1 F#6
1 F#6
1 E6
1 F#6
1 C3
1 C3
1 F#6
1 F#6
1 F#6
1 F#6
1 C3
1 C3
1 A6
1 A6
1 A6
1 A6
1 F#6
1 F#6
1 C3
1 C3
1 E6
1 E6
1 E6
1 E6
1 D6
1 D6
1 C3
1 C3
1 B5
1 C3
1 B5
1 B5
1 C#6
1 C#6
1 D6
1 D6
1 B5
1 B5
