3 G4
1 C3
3 G4
1 C3
3 G4
1 C3
3 E4
1 A#4
4 G4
3 E4
1 A#4
4 G4
4 C3
3 D5
1 C3
3 D5
1 C3
3 D5
1 C3
3 D#5
1 A#4
4 F#4
3 E4
1 A#4
4 G4
4 C3
4 G5
2 G4
1 C3
1 G4
4 G5
3 F#5
1 F5
1 E5
1 D#5
2 E5
2 C3
2 G4
4 C#5
3 C5
1 B4
1 A#4
1 A4
2 A#4
2 C3
2 E4
4 F#4
3 E4
1 F#4
4 A#4
3 G4
1 A#4
4 D5
4 C3
4 G5
2 G4
1 C3
1 G4
4 G5
3 F#5
1 F5
1 E5
1 D#5
2 E5
2 C3
2 G4
4 C#5
3 C5
1 B4
1 A#4
1 A4
2 A#4
2 C3
2 E4
4 F#4
3 E4
1 A#4
4 G4
3 E4
1 A#4
4 G4
4 G4
1 C3
1 C3
1 C3
1 C3
1 C3
1 C3
1 C3
1 C3
1 C3
1 C3
1 C3
1 C3
1 C3
1 C3
1 C3
1 C3
1 C3
1 C3
1 C3
1 C3
1 C3
1 C3
1 C3
1 C3
1 C3
1 C3
1 C3
1 C3
1 C3
1 C3
1 C3
1 C3
1 C3
1 C3
1 C3
1 C3
1 C3
1 C3
1 C3
1 C3
1 C3
1 C3
1 C3
1 C3
1 C3
1 C3
