1 C3
1 C3
1 A5
1 A5
1 A5
1 A5
1 A5
1 A5
1 C6
1 C3
1 C6
1 C3
1 A5
1 G5
1 E5
1 E5
1 G5
1 G5
1 A5
1 G5
1 G5
1 E5
1 D5
1 C5
1 C5
1 C3
1 C5
1 E5
1 E5
1 G5
1 A5
1 G5
1 C6
1 C3
1 C3
1 C3
1 C3
1 G5
1 A5
1 B5
1 C6
1 C3
1 C6
1 C3
1 A5
1 G5
1 E5
1 E5
1 G5
1 G5
1 A5
1 G5
1 G5
1 E5
1 D5
1 C5
1 G5
1 C3
1 G5
1 G5
1 B5
1 D6
1 B5
1 A5
1 G5
1 C3
1 C3
1 C3
1 C3
1 G5
1 A5
1 B5
1 C6
1 C3
1 C6
1 C3
1 C6
1 C3
1 C6
1 C3
1 C6
1 C3
1 C6
1 C3
1 A5
1 G5
1 E5
1 C5
1 F5
1 C3
1 F5
1 C3
1 F5
1 C3
1 F5
1 C3
1 A5
1 C3
1 C6
1 D6
1 D#6
1 C6
1 C3
1 C3
1 E6
1 D#6
1 E6
1 D6
1 E6
1 G6
1 G6
1 G6
1 E6
1 G6
1 E6
1 C3
1 C6
1 C3
1 G5
1 C3
1 A6
1 E6
1 C3
1 C6
1 D#6
1 C3
1 C6
1 C3
